# xmcd
#
# Track frame offsets:
#	150
#	17345
#	32884
#	46257
#	62888
#	77427
#	93392
#	108894
#	124550
#	141776
#	154730
#	174028
#	188577
#	205429
#	221492
#
# Disc length: 3163 seconds
#
# Revision: 0
# Processed by: cddbd v1.5.2PL0 Copyright (c) Steve Scherf et al.
# Submitted via: dBpowerAMP V4.0
#
DISCID=b90c590f
DTITLE=Vinicius and Matheus - Jogo Do Amor
DYEAR=1900
DGENRE=
TTITLE0=PorAmor
TTITLE1=TeAmeiDemais
TTITLE2=BateCoração
TTITLE3=JogoDoAmor
TTITLE4=TurmaDoAuê
TTITLE5=UmHomemQuandoChora
TTITLE6=NovaYork
TTITLE7=MarcasDaPaixão
TTITLE8=MeAmeSemMedo
TTITLE9=Qual É?
TTITLE10=A SeteChaves
TTITLE11=TurmaDoAuê-PlayBack
TTITLE12=FoiComVocê
TTITLE13=LadrãoDeTerra
TTITLE14=SemVocê
EXTD=
EXTT0=
EXTT1=
EXTT2=
EXTT3=
EXTT4=
EXTT5=
EXTT6=
EXTT7=
EXTT8=
EXTT9=
EXTT10=
EXTT11=
EXTT12=
EXTT13=
EXTT14=
PLAYORDER=
